<svg version="1.0" xmlns="http://www.w3.org/2000/svg"
 width="484.000000pt" height="484.000000pt" viewBox="0 0 484.000000 484.000000"
 preserveAspectRatio="xMidYMid meet">
    <title>Blockster icon</title>
    <g transform="translate(0.000000,484.000000) scale(0.100000,-0.100000)"
    fill="#000000" stroke="none">
        <path d="M2108 4825 c-527 -72 -989 -294 -1362 -655 -221 -214 -371 -418 -502
        -685 -169 -344 -244 -673 -244 -1065 0 -402 78 -738 254 -1089 148 -294 362
        -563 621 -779 274 -229 657 -418 1007 -496 322 -72 714 -76 1031 -11 444 92
        854 309 1181 625 221 214 371 418 502 685 169 344 244 673 244 1065 0 402 -78
        738 -254 1089 -148 294 -362 563 -621 779 -339 284 -787 478 -1238 537 -145
        19 -481 19 -619 0z m822 -709 c0 -33 -49 -195 -207 -686 -193 -601 -189 -588
        -176 -609 9 -14 53 -17 391 -21 415 -5 416 -6 396 -59 -11 -26 -290 -403
        -1156 -1556 -434 -579 -414 -553 -429 -538 -18 18 -6 58 373 1213 70 212 75
        250 38 261 -14 4 -170 7 -347 8 -177 1 -328 4 -337 7 -38 15 -34 22 291 465
        166 226 568 777 664 908 30 42 100 137 154 211 54 74 130 178 168 230 81 113
        154 200 168 200 5 0 9 -15 9 -34z"/>
    </g>
</svg>
