<svg version="1.0" xmlns="http://www.w3.org/2000/svg"
 width="512.000000pt" height="512.000000pt" viewBox="0 0 512.000000 512.000000"
 preserveAspectRatio="xMidYMid meet">
    <title>Facebook icon</title>
    <g transform="translate(0.000000,512.000000) scale(0.100000,-0.100000)"
    fill="#000000" stroke="none">
        <path d="M3065 4924 c-283 -26 -500 -119 -671 -289 -167 -166 -255 -353 -294
        -622 -5 -39 -10 -235 -10 -435 0 -270 -3 -367 -12 -376 -9 -9 -103 -12 -360
        -12 l-348 0 2 -417 3 -418 355 -5 355 -5 3 -1078 2 -1077 418 2 417 3 3 1077
        2 1078 357 2 358 3 7 50 c8 50 26 193 54 415 7 63 20 169 29 235 8 66 15 123
        15 127 0 4 -183 9 -407 10 l-408 3 -3 320 c-2 272 0 329 14 379 33 120 84 172
        218 224 33 12 102 17 341 21 l300 6 3 376 2 375 -172 12 c-190 13 -510 22
        -573 16z"/>
    </g>
</svg>
