<?xml version="1.0" standalone="no"?>
<!DOCTYPE svg PUBLIC "-//W3C//DTD SVG 20010904//EN"
 "http://www.w3.org/TR/2001/REC-SVG-20010904/DTD/svg10.dtd">
<svg version="1.0" xmlns="http://www.w3.org/2000/svg"
 width="512.000000pt" height="512.000000pt" viewBox="0 0 512.000000 512.000000"
 preserveAspectRatio="xMidYMid meet">
    <title>Habr icon</title>
<g transform="translate(0.000000,512.000000) scale(0.100000,-0.100000)"
fill="#000000" stroke="none">
<path d="M2645 5108 c-16 -5 -52 -16 -80 -25 -124 -37 -276 -162 -290 -237 -9
-48 9 -91 50 -116 42 -26 84 -25 126 3 62 42 81 119 33 137 -31 12 -85 4 -111
-16 -16 -12 -16 -15 -3 -23 10 -7 22 -6 37 4 31 21 42 19 53 -10 15 -40 -3
-73 -44 -80 -66 -13 -127 41 -112 100 12 49 116 140 213 187 80 38 95 42 168
42 65 1 85 -3 107 -19 90 -68 78 -177 -39 -361 l-48 -75 -54 6 c-30 4 -66 12
-80 17 -14 6 -112 13 -217 16 -155 3 -207 1 -280 -13 -211 -42 -394 -124 -550
-247 -34 -26 -68 -48 -75 -48 -8 0 -27 16 -42 35 -35 44 -155 134 -224 169
-64 32 -163 69 -168 64 -3 -2 24 -24 58 -48 72 -52 266 -242 286 -283 14 -26
13 -29 -14 -57 -16 -17 -32 -30 -36 -30 -4 0 -34 28 -66 61 -62 66 -161 136
-240 170 -75 32 -194 72 -199 66 -3 -2 21 -19 53 -37 128 -73 343 -257 343
-294 0 -12 -115 -76 -137 -76 -5 0 -35 -18 -67 -40 -31 -22 -59 -40 -62 -40
-3 0 -24 13 -47 29 -63 43 -135 77 -203 96 -97 27 -107 17 -33 -32 72 -47 202
-149 207 -163 2 -5 -15 -35 -36 -67 -53 -77 -86 -145 -107 -218 -29 -101 -30
-102 -74 -109 -64 -10 -178 -75 -227 -129 -26 -29 -50 -70 -61 -104 -17 -51
-23 -58 -54 -66 -49 -13 -69 -34 -69 -76 0 -66 44 -103 135 -116 28 -4 59 -15
70 -25 55 -48 109 -53 149 -14 55 56 21 137 -79 191 -33 18 -70 33 -81 33 -64
1 -11 127 79 187 45 31 138 73 159 73 10 0 13 -38 12 -183 0 -161 -3 -189 -22
-245 -12 -34 -22 -71 -22 -81 0 -10 -35 -54 -78 -97 -98 -100 -133 -167 -140
-267 -3 -57 0 -84 18 -129 34 -91 126 -206 241 -302 44 -36 59 -56 69 -92 l13
-45 -55 -49 c-124 -110 -164 -277 -108 -452 23 -72 35 -93 78 -147 122 -150
342 -172 479 -47 40 36 42 36 127 36 63 0 102 6 144 21 97 35 92 36 92 -5 0
-30 -10 -47 -57 -99 -128 -139 -202 -192 -254 -185 -39 6 -48 -10 -19 -34 27
-22 61 -23 98 -4 28 14 106 94 153 155 83 107 15 -82 -71 -201 -46 -63 -54
-88 -30 -88 13 0 113 158 143 225 14 33 34 86 43 118 10 31 30 70 45 86 26 29
26 29 82 16 65 -15 77 -21 77 -40 0 -36 -446 -560 -619 -728 -125 -120 -172
-150 -196 -126 -14 14 -13 23 6 85 12 38 32 91 46 117 13 27 23 51 20 53 -15
16 -136 -209 -158 -297 -15 -57 -8 -79 27 -79 72 0 295 184 480 396 119 137
352 425 373 461 21 36 26 -5 18 -138 -10 -151 2 -125 -144 -315 -104 -136
-249 -306 -347 -408 -37 -38 -65 -70 -63 -72 2 -2 25 10 50 27 67 44 194 183
348 379 73 94 137 170 141 170 8 0 5 -41 -18 -260 -36 -338 -101 -564 -177
-611 -29 -17 -30 -19 -9 -19 32 0 70 27 96 69 60 95 115 359 141 671 8 102 17
198 20 213 4 22 158 259 195 300 4 5 33 -12 64 -37 61 -49 68 -52 166 -60 78
-7 128 5 160 39 13 14 29 25 36 25 6 0 48 -18 92 -40 44 -22 84 -40 90 -40 16
0 23 -15 38 -88 21 -96 20 -301 -1 -382 -20 -79 -66 -168 -110 -213 -42 -43
-130 -101 -177 -116 -48 -16 -49 -25 -2 -16 100 18 224 111 270 200 52 101 59
139 59 335 0 102 -3 199 -7 217 l-7 32 112 -6 c97 -5 120 -3 171 15 119 43
165 105 166 222 0 74 -20 137 -74 234 l-36 64 52 51 c60 57 80 61 147 31 63
-29 118 -76 147 -126 22 -38 26 -54 22 -103 -3 -39 -11 -68 -27 -90 -13 -18
-21 -35 -18 -38 3 -2 19 14 36 37 56 77 52 168 -11 244 -36 44 -141 116 -169
116 -33 0 -31 21 9 73 22 29 55 77 73 107 18 30 38 58 43 63 7 4 29 -13 54
-40 65 -72 314 -352 339 -382 20 -24 23 -25 38 -10 15 15 4 32 -162 229 -98
117 -186 223 -196 235 -18 23 -17 24 38 60 30 20 58 41 61 46 21 34 88 -25
129 -115 25 -53 55 -163 55 -198 0 -11 5 -18 13 -15 26 9 -2 159 -45 235 -10
18 -18 37 -18 42 0 5 42 -11 93 -34 146 -68 190 -80 297 -81 107 0 134 11 169
71 17 28 26 34 55 34 63 0 288 40 396 71 125 35 252 80 246 86 -3 3 -49 -4
-103 -15 -191 -40 -354 -55 -623 -55 -234 0 -267 2 -405 27 -82 14 -154 31
-158 35 -6 6 4 35 22 72 17 34 31 68 31 74 0 14 64 19 445 36 132 5 256 14
275 19 19 4 57 11 83 15 64 9 133 39 146 64 27 50 -2 91 -65 91 -64 -1 -101
-43 -49 -56 25 -6 32 -18 17 -28 -33 -20 -497 -54 -755 -56 l-68 0 3 82 3 83
62 16 c159 43 311 162 385 301 45 85 78 237 78 356 0 83 2 93 40 168 22 43 40
84 40 91 0 18 39 26 69 13 15 -6 35 -24 45 -40 9 -17 21 -30 27 -30 20 0 7 31
-29 70 -31 32 -46 40 -75 40 -30 0 -42 -7 -80 -51 -48 -54 -61 -57 -70 -12 -3
16 -16 39 -28 52 -31 33 -94 25 -155 -19 -25 -18 -46 -31 -48 -29 -75 107
-173 208 -238 247 -16 9 -28 21 -28 27 0 5 29 29 63 52 34 23 81 61 104 83 24
23 50 40 59 38 9 -2 26 -20 37 -40 10 -21 24 -38 29 -38 17 0 0 62 -24 87
l-22 23 37 73 c61 121 51 172 -29 151 -53 -13 -59 -37 -6 -28 30 5 40 3 45
-10 8 -21 -18 -95 -47 -131 -23 -28 -27 -30 -105 -30 -45 0 -81 2 -81 5 0 2
14 19 32 37 55 57 5 39 -60 -22 -33 -30 -65 -55 -71 -55 -6 0 -43 -16 -82 -35
-39 -19 -76 -35 -83 -35 -17 0 -116 44 -116 52 0 4 68 59 151 123 83 64 148
119 146 122 -3 2 -13 0 -24 -6 -10 -6 -72 -37 -138 -69 -66 -32 -147 -75 -180
-95 -33 -20 -62 -33 -66 -29 -4 4 -9 43 -12 88 l-5 81 161 144 c88 79 165 149
171 154 6 6 54 49 106 95 52 47 100 89 106 95 6 5 44 39 84 75 41 36 92 82
115 104 l40 38 -50 -36 c-27 -20 -66 -47 -85 -61 -19 -13 -120 -86 -225 -163
-104 -77 -193 -138 -196 -136 -3 2 5 35 17 73 13 39 26 97 30 131 6 52 4 60
-10 60 -11 0 -16 -9 -16 -29 0 -47 -35 -172 -66 -235 -25 -52 -42 -69 -128
-133 -55 -40 -103 -73 -107 -73 -5 0 -11 11 -15 24 -4 18 2 35 24 63 59 75 85
140 89 222 3 59 0 84 -14 111 -21 40 -75 80 -109 80 -36 0 -29 -18 14 -35 55
-23 76 -58 80 -137 5 -79 -22 -149 -83 -217 l-37 -41 -59 53 c-35 30 -58 58
-55 67 2 8 7 24 11 35 3 11 -1 8 -10 -7 -8 -16 -17 -28 -20 -28 -2 0 -40 18
-84 40 -44 22 -87 40 -95 40 -24 0 -19 24 13 72 89 132 139 260 127 324 -10
48 -72 114 -109 114 -14 0 -29 5 -32 10 -8 12 -69 11 -110 -2z m-270 -566
c101 -32 172 -73 240 -137 36 -35 65 -68 65 -75 0 -15 -104 -6 -190 16 -30 8
-63 14 -75 14 -11 0 -52 20 -90 44 -67 41 -240 116 -268 116 -7 0 -22 6 -32
14 -18 13 -17 15 20 21 22 3 47 8 55 10 38 10 220 -5 275 -23z m365 -33 c72
-27 150 -70 150 -82 0 -18 -68 -77 -89 -77 -12 0 -21 4 -21 10 0 5 -27 39 -61
75 -39 41 -59 70 -55 80 7 19 10 19 76 -6z m237 -148 c27 -28 55 -62 63 -76
13 -24 12 -28 -18 -58 l-32 -32 -75 40 c-42 22 -83 48 -92 57 -15 17 -13 21
28 67 24 27 51 49 60 50 9 1 38 -21 66 -48z m-820 -22 c56 -30 87 -55 80 -66
-3 -5 -30 -15 -59 -22 -29 -6 -80 -25 -112 -41 -32 -17 -64 -30 -71 -30 -7 0
-36 16 -65 35 -29 19 -58 35 -66 35 -30 0 -11 28 37 54 100 55 194 68 256 35z
m181 -141 c24 -24 12 -36 -40 -43 -29 -4 -93 -20 -142 -36 -67 -22 -92 -27
-102 -18 -20 17 -8 28 63 60 100 46 196 62 221 37z m374 -107 c4 -3 4 -31 0
-61 -6 -51 -10 -57 -45 -75 -44 -24 -51 -18 -61 53 -3 25 -11 51 -17 58 -6 8
-9 21 -5 29 4 12 17 14 63 9 32 -4 61 -9 65 -13z m-283 -28 c42 -85 51 -79
-124 -93 -85 -7 -158 -13 -162 -14 -10 -2 -44 64 -38 73 5 9 153 57 195 64 14
2 44 5 67 6 40 1 44 -2 62 -36z m-1114 -60 c9 -70 13 -81 14 -48 1 17 8 38 15
47 11 16 14 8 19 -60 4 -42 9 -88 12 -102 5 -23 0 -27 -71 -57 -42 -18 -80
-31 -83 -28 -4 2 -4 40 0 83 5 61 15 96 39 146 18 36 36 66 41 66 4 0 11 -21
14 -47z m159 36 c37 -10 38 -12 32 -47 -3 -20 -6 -63 -6 -94 0 -54 -2 -58 -27
-64 -34 -9 -49 11 -58 76 -7 49 2 140 14 140 3 0 23 -5 45 -11z m-307 -16 c-3
-10 -13 -38 -22 -63 -11 -28 -19 -90 -22 -167 -6 -124 -15 -152 -47 -140 -19
8 -40 127 -33 197 6 66 40 143 76 171 30 24 55 25 48 2z m2638 -2 c7 -13 -22
-40 -118 -112 -82 -62 -101 -68 -132 -45 -18 13 -17 16 21 75 33 52 46 64 84
76 52 16 136 19 145 6z m-505 -129 c89 -42 229 -123 285 -165 50 -38 115 -99
115 -108 0 -4 -11 -14 -25 -23 -24 -16 -25 -15 -90 49 -83 83 -214 169 -332
219 -85 35 -105 51 -87 69 10 10 51 -3 134 -41z m-2353 -44 c13 -12 23 -32 23
-46 0 -32 27 -138 46 -183 13 -29 13 -41 5 -58 -14 -25 -10 -25 -86 -6 -33 8
-82 14 -109 15 l-49 0 7 42 c11 66 110 258 133 258 4 0 17 -10 30 -22z m2362
-118 c116 -64 261 -186 261 -220 0 -6 -9 -28 -20 -50 -11 -22 -20 -46 -20 -55
0 -30 -19 -14 -43 38 -39 86 -132 193 -224 258 -24 16 -47 39 -53 49 -17 32
15 25 99 -20z m-1829 -107 c0 -10 3 -40 6 -68 8 -76 0 -82 -85 -60 -39 11 -71
24 -71 30 0 21 112 115 136 115 8 0 14 -8 14 -17z m2572 -54 c37 -20 64 -128
39 -154 -5 -6 -26 -43 -46 -83 -20 -40 -40 -70 -44 -67 -5 2 -12 24 -15 48 -7
45 -35 128 -61 177 -13 25 -12 29 3 43 17 16 79 46 95 47 5 0 17 -5 29 -11z
m-733 -46 c53 -63 95 -143 115 -221 19 -76 20 -114 4 -198 l-11 -64 -47 0
c-32 0 -56 6 -72 19 -25 20 -25 21 -32 238 -3 120 -9 230 -12 246 -9 40 9 34
55 -20z m-2402 -15 c29 -7 53 -17 53 -23 0 -5 -19 -22 -43 -37 -24 -15 -72
-57 -106 -93 -34 -36 -65 -65 -67 -65 -9 0 -3 193 6 211 13 23 75 26 157 7z
m2206 -51 c26 -53 33 -143 14 -187 l-14 -35 -10 25 c-6 14 -18 50 -28 80 -10
30 -24 65 -31 77 -18 29 -18 42 3 65 24 27 45 19 66 -25z m745 -83 c16 -38 26
-88 29 -141 l5 -82 -71 -35 c-39 -20 -74 -36 -79 -36 -4 0 -6 62 -4 137 l4
137 37 43 c20 23 40 41 46 39 5 -1 20 -29 33 -62z m-233 15 c29 -84 28 -92
-27 -168 -28 -39 -55 -68 -59 -64 -19 22 40 278 63 271 6 -2 17 -20 23 -39z
m-2568 -45 c3 -9 -6 -28 -24 -47 -77 -82 -109 -181 -99 -310 5 -81 4 -88 -12
-83 -9 2 -32 8 -51 11 l-34 7 6 72 c10 115 61 229 140 313 53 57 64 62 74 37z
m3034 -186 c-6 -43 -18 -92 -26 -109 -24 -46 -81 -105 -115 -119 -37 -15 -49
-7 -27 18 30 32 56 106 65 184 9 72 13 81 58 133 l49 57 3 -43 c2 -24 -1 -78
-7 -121z m-2941 72 c0 -46 -6 -70 -23 -98 -35 -56 -60 -130 -66 -196 -6 -61
-15 -73 -41 -56 -12 7 -15 34 -15 132 0 111 2 128 24 168 26 48 86 110 108
110 9 0 13 -17 13 -60z m2719 -176 c-13 -27 -41 -65 -62 -86 -36 -35 -163
-105 -173 -96 -2 3 16 43 41 90 43 81 47 85 102 108 32 13 67 29 78 37 33 22
39 -1 14 -53z m89 -191 c-5 -25 -116 -111 -158 -123 -91 -26 -230 -24 -230 4
0 6 30 20 68 30 37 10 94 30 127 46 33 15 80 31 105 35 25 4 52 11 60 16 23
13 32 11 28 -8z m-3221 -25 c5 -7 19 -40 32 -73 12 -33 29 -74 38 -92 15 -30
14 -33 -15 -70 -16 -21 -36 -56 -44 -78 -9 -21 -19 -40 -24 -42 -10 -3 -49
160 -58 239 -3 27 -2 58 3 70 5 13 12 31 15 41 6 20 39 23 53 5z m-113 -175
c3 -32 17 -96 30 -143 23 -80 24 -86 8 -112 -9 -15 -19 -28 -23 -28 -18 0 -41
93 -46 181 -9 150 16 232 31 102z m255 -137 c25 -40 26 -59 5 -77 -26 -21 -55
-87 -61 -140 -6 -54 -18 -63 -33 -23 -22 57 -2 191 37 251 20 31 28 29 52 -11z
m150 -187 l89 -91 -70 -69 c-80 -78 -82 -78 -143 -7 -36 42 -37 45 -32 108 3
49 11 77 31 108 14 23 28 42 31 42 2 0 44 -41 94 -91z m424 -240 c20 -11 19
-13 -36 -87 -43 -57 -60 -61 -88 -22 -33 47 -33 67 1 101 27 27 35 30 68 24
20 -4 45 -11 55 -16z m-539 -135 c33 -47 102 -129 153 -182 51 -53 93 -100 93
-104 1 -32 -121 51 -191 130 -104 118 -181 268 -126 246 7 -2 39 -43 71 -90z
m649 24 c28 -35 29 -36 12 -69 -20 -39 -64 -89 -79 -89 -13 0 -86 71 -86 84 0
15 103 117 114 113 5 -2 23 -19 39 -39z m-773 -19 c62 -121 157 -235 253 -304
31 -22 56 -44 57 -49 0 -18 -72 -96 -90 -96 -47 0 -194 141 -231 222 -22 49
-66 46 -54 -3 11 -44 103 -157 170 -209 36 -29 65 -55 65 -59 0 -11 -63 -31
-100 -31 -66 0 -126 92 -154 234 -12 63 -36 89 -36 39 1 -89 62 -246 113 -289
41 -34 113 -33 173 2 l45 27 60 -18 c32 -10 59 -24 59 -31 0 -17 -45 -47 -103
-69 -59 -22 -151 -16 -219 14 -61 26 -130 96 -162 162 -50 103 -53 259 -7 363
21 49 102 136 126 136 8 0 24 -18 35 -41z m1892 -61 c-67 -126 -126 -139 -224
-49 -16 13 -28 28 -28 32 0 4 37 9 83 10 73 4 90 8 133 35 27 17 52 29 56 27
4 -2 -5 -27 -20 -55z m-692 -73 c28 -14 50 -29 50 -34 0 -4 -16 -29 -36 -56
-31 -40 -40 -46 -63 -41 -14 4 -43 9 -63 13 -21 3 -38 10 -38 14 0 9 90 129
97 129 2 0 26 -11 53 -25z m-655 -76 c17 -11 51 -31 78 -45 26 -13 47 -31 47
-38 0 -20 -70 -76 -95 -76 -22 0 -134 88 -134 107 -1 16 48 73 62 73 7 0 26
-9 42 -21z m1299 -89 c44 -6 101 -10 128 -10 35 0 50 -4 55 -15 7 -19 -10 -33
-102 -82 -68 -36 -73 -37 -180 -38 -109 0 -111 0 -182 38 -80 43 -112 72 -97
87 17 17 145 35 224 32 41 -1 111 -7 154 -12z m336 -114 c99 -174 90 -327 -23
-385 -39 -20 -67 -25 -150 -28 -65 -3 -120 1 -150 9 -48 13 -49 14 -73 81 -13
38 -37 94 -53 124 -17 31 -28 59 -26 63 3 5 24 11 48 15 79 12 242 81 289 122
10 9 26 13 38 10 15 -4 20 0 20 13 0 19 29 42 42 34 4 -2 21 -29 38 -58z
m-1784 18 c58 -31 175 -74 203 -74 30 0 34 -17 9 -32 -37 -21 -242 -17 -300 5
-27 10 -48 21 -48 23 0 4 83 104 86 104 1 0 23 -12 50 -26z m1268 -186 c21
-28 96 -179 96 -193 0 -18 -82 14 -141 56 -24 17 -25 20 -16 81 15 104 20 109
61 56z m-552 -51 c10 -12 18 -27 18 -33 0 -6 -23 -44 -51 -85 -28 -41 -62 -91
-76 -111 -14 -21 -30 -38 -34 -38 -5 0 -9 57 -9 128 0 162 7 177 84 167 35 -5
57 -14 68 -28z"/>
</g>
</svg>
